<svg xmlns="http://www.w3.org/2000/svg" width="260" height="260" fill="none"><rect id="backgroundrect" width="100%" height="100%" x="0" y="0" fill="none" stroke="none" class="" style=""/>









<g class="currentLayer" style=""><title>Layer 1</title><g class=""><g class="" id="svg_45"><path d="M40.74418258666992,144.83721305705023 V248.53489250100995 H142.2595838424241 " stroke="#58A9A5" stroke-width="8" stroke-linecap="round" id="svg_46" class=""/><path d="M219.60465146585582,144.83721305705023 V248.53489250100995 H118.08925021010165 " stroke="#58A9A5" stroke-width="8" stroke-linecap="round" id="svg_47" class=""/><path d="M219.60465146585582,144.83721305705023 L160.91328052650525,82.94747517405378 L103.58705003070821,26.325579406810533 " stroke="#58A9A5" stroke-width="8" stroke-linecap="round" id="svg_48" class=""/><path d="M40.74418258666992,144.83721305705023 L99.43555352602053,82.94747517405378 L156.76178402181753,26.325579406810533 " stroke="#58A9A5" stroke-width="8" stroke-linecap="round" id="svg_49" class=""/></g><g class="" id="svg_60"><path d="M40.74418258666992,144.83721305705023 V248.53489250100995 H142.2595838424241 " stroke="#58A9A5" stroke-width="8" stroke-linecap="round" id="svg_61" class=""/><path d="M219.60465146585582,144.83721305705023 V248.53489250100995 H118.08925021010165 " stroke="#58A9A5" stroke-width="8" stroke-linecap="round" id="svg_62" class=""/><path d="M219.60465146585582,144.83721305705023 L160.91328052650525,82.94747517405378 L103.58705003070821,26.325579406810533 " stroke="#58A9A5" stroke-width="8" stroke-linecap="round" id="svg_63" class=""/><path d="M40.74418258666992,144.83721305705023 L99.43555352602053,82.94747517405378 L156.76178402181753,26.325579406810533 " stroke="#58A9A5" stroke-width="8" stroke-linecap="round" id="svg_64" class=""/></g><g class="" id="svg_1"><path d="M40.74418258666992,144.83721305705023 V248.53489250100995 H142.2595838424241 " stroke="#58A9A5" stroke-width="8" stroke-linecap="round" id="svg_6" class=""/><path d="M219.60465146585582,144.83721305705023 V248.53489250100995 H118.08925021010165 " stroke="#58A9A5" stroke-width="8" stroke-linecap="round" id="svg_7" class=""/><path d="M219.60465146585582,144.83721305705023 L160.91328052650525,82.94747517405378 L103.58705003070821,26.325579406810533 " stroke="#58A9A5" stroke-width="8" stroke-linecap="round" id="svg_8" class=""/><path d="M40.74418258666992,144.83721305705023 L99.43555352602053,82.94747517405378 L156.76178402181753,26.325579406810533 " stroke="#58A9A5" stroke-width="8" stroke-linecap="round" id="svg_9" class=""/></g><g class="" id="svg_15"><path d="M40.74418258666992,144.83721305705023 V248.53489250100995 H142.2595838424241 " stroke="#58A9A5" stroke-width="8" stroke-linecap="round" id="svg_16" class=""/><path d="M219.60465146585582,144.83721305705023 V248.53489250100995 H118.08925021010165 " stroke="#58A9A5" stroke-width="8" stroke-linecap="round" id="svg_17" class=""/><path d="M219.60465146585582,144.83721305705023 L160.91328052650525,82.94747517405378 L103.58705003070821,26.325579406810533 " stroke="#58A9A5" stroke-width="8" stroke-linecap="round" id="svg_18" class=""/><path d="M40.74418258666992,144.83721305705023 L99.43555352602053,82.94747517405378 L156.76178402181753,26.325579406810533 " stroke="#58A9A5" stroke-width="8" stroke-linecap="round" id="svg_19" class=""/></g><g class="" id="svg_10"><path d="M40.74418258666992,144.83721305705023 V248.53489250100995 H142.2595838424241 " stroke="#58A9A5" stroke-width="8" stroke-linecap="round" id="svg_11" class=""/><path d="M219.60465146585582,144.83721305705023 V248.53489250100995 H118.08925021010165 " stroke="#58A9A5" stroke-width="8" stroke-linecap="round" id="svg_12" class=""/><path d="M219.60465146585582,144.83721305705023 L160.91328052650525,82.94747517405378 L103.58705003070821,26.325579406810533 " stroke="#58A9A5" stroke-width="8" stroke-linecap="round" id="svg_13" class=""/><path d="M40.74418258666992,144.83721305705023 L99.43555352602053,82.94747517405378 L156.76178402181753,26.325579406810533 " stroke="#58A9A5" stroke-width="8" stroke-linecap="round" id="svg_14" class=""/></g><g class="" id="svg_25"><path d="M40.74418258666992,144.83721305705023 V248.53489250100995 H142.2595838424241 " stroke="#58A9A5" stroke-width="8" stroke-linecap="round" id="svg_26" class=""/><path d="M219.60465146585582,144.83721305705023 V248.53489250100995 H118.08925021010165 " stroke="#58A9A5" stroke-width="8" stroke-linecap="round" id="svg_27" class=""/><path d="M219.60465146585582,144.83721305705023 L160.91328052650525,82.94747517405378 L103.58705003070821,26.325579406810533 " stroke="#58A9A5" stroke-width="8" stroke-linecap="round" id="svg_28" class=""/><path d="M40.74418258666992,144.83721305705023 L99.43555352602053,82.94747517405378 L156.76178402181753,26.325579406810533 " stroke="#58A9A5" stroke-width="8" stroke-linecap="round" id="svg_29" class=""/></g><g class="" id="svg_20"><path d="M40.74418258666992,144.83721305705023 V248.53489250100995 H142.2595838424241 " stroke="#58A9A5" stroke-width="8" stroke-linecap="round" id="svg_21" class=""/><path d="M219.60465146585582,144.83721305705023 V248.53489250100995 H118.08925021010165 " stroke="#58A9A5" stroke-width="8" stroke-linecap="round" id="svg_22" class=""/><path d="M219.60465146585582,144.83721305705023 L160.91328052650525,82.94747517405378 L103.58705003070821,26.325579406810533 " stroke="#58A9A5" stroke-width="8" stroke-linecap="round" id="svg_23" class=""/><path d="M40.74418258666992,144.83721305705023 L99.43555352602053,82.94747517405378 L156.76178402181753,26.325579406810533 " stroke="#58A9A5" stroke-width="8" stroke-linecap="round" id="svg_24" class=""/></g><g class="" id="svg_30"><path d="M40.74418258666992,144.83721305705023 V248.53489250100995 H142.2595838424241 " stroke="#58A9A5" stroke-width="8" stroke-linecap="round" id="svg_31" class=""/><path d="M219.60465146585582,144.83721305705023 V248.53489250100995 H118.08925021010165 " stroke="#58A9A5" stroke-width="8" stroke-linecap="round" id="svg_32" class=""/><path d="M219.60465146585582,144.83721305705023 L160.91328052650525,82.94747517405378 L103.58705003070821,26.325579406810533 " stroke="#58A9A5" stroke-width="8" stroke-linecap="round" id="svg_33" class=""/><path d="M40.74418258666992,144.83721305705023 L99.43555352602053,82.94747517405378 L156.76178402181753,26.325579406810533 " stroke="#58A9A5" stroke-width="8" stroke-linecap="round" id="svg_34" class=""/></g><g class="" id="svg_40"><path d="M40.74418258666992,144.83721305705023 V248.53489250100995 H142.2595838424241 " stroke="#58A9A5" stroke-width="8" stroke-linecap="round" id="svg_41" class=""/><path d="M219.60465146585582,144.83721305705023 V248.53489250100995 H118.08925021010165 " stroke="#58A9A5" stroke-width="8" stroke-linecap="round" id="svg_42" class=""/><path d="M219.60465146585582,144.83721305705023 L160.91328052650525,82.94747517405378 L103.58705003070821,26.325579406810533 " stroke="#58A9A5" stroke-width="8" stroke-linecap="round" id="svg_43" class=""/><path d="M40.74418258666992,144.83721305705023 L99.43555352602053,82.94747517405378 L156.76178402181753,26.325579406810533 " stroke="#58A9A5" stroke-width="8" stroke-linecap="round" id="svg_44" class=""/></g><g class="" id="svg_35"><path d="M40.74418258666992,144.83721305705023 V248.53489250100995 H142.2595838424241 " stroke="#58A9A5" stroke-width="8" stroke-linecap="round" id="svg_36" class=""/><path d="M219.60465146585582,144.83721305705023 V248.53489250100995 H118.08925021010165 " stroke="#58A9A5" stroke-width="8" stroke-linecap="round" id="svg_37" class=""/><path d="M219.60465146585582,144.83721305705023 L160.91328052650525,82.94747517405378 L103.58705003070821,26.325579406810533 " stroke="#58A9A5" stroke-width="8" stroke-linecap="round" id="svg_38" class=""/><path d="M40.74418258666992,144.83721305705023 L99.43555352602053,82.94747517405378 L156.76178402181753,26.325579406810533 " stroke="#58A9A5" stroke-width="8" stroke-linecap="round" id="svg_39" class=""/></g><g class="" id="svg_50"><path d="M40.74418258666992,144.83721305705023 V248.53489250100995 H142.2595838424241 " stroke="#58A9A5" stroke-width="8" stroke-linecap="round" id="svg_51" class=""/><path d="M219.60465146585582,144.83721305705023 V248.53489250100995 H118.08925021010165 " stroke="#58A9A5" stroke-width="8" stroke-linecap="round" id="svg_52" class=""/><path d="M219.60465146585582,144.83721305705023 L160.91328052650525,82.94747517405378 L103.58705003070821,26.325579406810533 " stroke="#58A9A5" stroke-width="8" stroke-linecap="round" id="svg_53" class=""/><path d="M40.74418258666992,144.83721305705023 L99.43555352602053,82.94747517405378 L156.76178402181753,26.325579406810533 " stroke="#58A9A5" stroke-width="8" stroke-linecap="round" id="svg_54" class=""/></g><path d="M46.32557797431946,137.86046888209296 V241.55814832605267 H147.84097923007363 " stroke="#58A9A5" stroke-width="20" stroke-linecap="round" id="svg_56" class=""/><path d="M214.02325655504345,137.86046912051154 V241.55814856447125 H112.50785529928928 " stroke="#58A9A5" stroke-width="20" stroke-linecap="round" id="svg_57" class=""/><path d="M212.62790752931713,136.4651203332038 L153.93653658996655,74.57538245020734 L96.61030609416952,17.953486682964098 " stroke="#58A9A5" stroke-width="20" stroke-linecap="round" id="svg_58" class=""/><path d="M47.25580978393555,136.0000038323493 L105.94718072328615,74.11026594935285 L163.27341121908316,17.488370182109605 " stroke="#58A9A5" stroke-width="20" stroke-linecap="round" id="svg_59" class=""/></g></g></svg>